<?xml version="1.0" encoding="UTF-8" standalone="no"?>
<svg
   xmlns:dc="http://purl.org/dc/elements/1.1/"
   xmlns:cc="http://creativecommons.org/ns#"
   xmlns:rdf="http://www.w3.org/1999/02/22-rdf-syntax-ns#"
   xmlns:svg="http://www.w3.org/2000/svg"
   xmlns="http://www.w3.org/2000/svg"
   xmlns:sodipodi="http://sodipodi.sourceforge.net/DTD/sodipodi-0.dtd"
   xmlns:inkscape="http://www.inkscape.org/namespaces/inkscape"
   version="1.1"
   viewBox="0 0 32 32"
   id="svg22"
   sodipodi:docname="favicon.svg"
   width="32"
   height="32"
   inkscape:version="0.92.4 (5da689c313, 2019-01-14)">
  <metadata
     id="metadata28">
    <rdf:RDF>
      <cc:Work
         rdf:about="">
        <dc:format>image/svg+xml</dc:format>
        <dc:type
           rdf:resource="http://purl.org/dc/dcmitype/StillImage" />
        <dc:title></dc:title>
      </cc:Work>
    </rdf:RDF>
  </metadata>
  <defs
     id="defs26" />
  <sodipodi:namedview
     pagecolor="#ffffff"
     bordercolor="#666666"
     borderopacity="1"
     objecttolerance="10"
     gridtolerance="10"
     guidetolerance="10"
     inkscape:pageopacity="0"
     inkscape:pageshadow="2"
     inkscape:window-width="1920"
     inkscape:window-height="1057"
     id="namedview24"
     showgrid="false"
     inkscape:zoom="20.861878"
     inkscape:cx="16.257009"
     inkscape:cy="20.156827"
     inkscape:window-x="1272"
     inkscape:window-y="-8"
     inkscape:window-maximized="1"
     inkscape:current-layer="svg22" />
  <g
     id="g40"
     transform="scale(0.02209945)">
    <g
       id="g10"
       style="fill:none;stroke-width:2;stroke-linecap:butt">
      <path
         id="path2"
         d="m 1285.88,45.58 q -257.11,-0.03 -1108.26,-0.02 -17.51,0 -27,1.06 c -18.84,2.09 -37.2,6.62 -53.63,16.15 -23.23,13.48 -38.84,36.39 -44.96,62.77 q -4.1,17.67 -5.84,35.81 -1.11,11.53 -1.11,36.26 0.02,644.79 0,1059.39 0,20.34 1.11,30.95 c 1.99,19.04 4.99,38.47 13.08,55.97 14.72,31.83 44.43,50.45 78.4,55.39 q 20.6,3 38.84,3 649.23,0 1096.99,0 c 30.6,0 63.24,-4.28 88.28,-23.5 21.4,-16.42 33.99,-41.73 37.78,-68.25 2.54,-17.8 3.3,-36.71 3.26,-59.14 q -0.03,-19.49 -0.02,-1068.42 0,-14.4 -2.1,-37.04 -1.48,-15.88 -4.87,-26.61 c -4.07,-12.87 -9.98,-25.31 -18.88,-35.57 -18.29,-21.08 -43.18,-32.58 -70.73,-35.99 q -17.86,-2.21 -20.34,-2.21"
         inkscape:connector-curvature="0"
         style="vector-effect:non-scaling-stroke;stroke:#d3904c" />
      <path
         id="path4"
         d="m 1221.7,135.75 a 0.69,0.69 0 0 0 -0.69,-0.69 H 226.95 a 0.69,0.69 0 0 0 -0.69,0.69 v 632.12 a 0.69,0.69 0 0 0 0.69,0.69 h 994.06 a 0.69,0.69 0 0 0 0.69,-0.69 V 135.75"
         inkscape:connector-curvature="0"
         style="vector-effect:non-scaling-stroke;stroke:#bc8043" />
      <path
         id="path6"
         d="m 1221.7,973.1 a 0.57,0.57 0 0 0 -0.57,-0.57 h -994.3 a 0.57,0.57 0 0 0 -0.57,0.57 v 338.22 a 0.57,0.57 0 0 0 0.57,0.57 h 994.3 a 0.57,0.57 0 0 0 0.57,-0.57 V 973.1"
         inkscape:connector-curvature="0"
         style="vector-effect:non-scaling-stroke;stroke:#bc8043" />
      <path
         id="path8"
         d="m 658.9,349.52 q -93.18,59.33 -375.82,239.32 a 0.69,0.68 -16.7 0 0 -0.32,0.57 v 142.66 a 0.39,0.39 0 0 0 0.39,0.39 h 224.91 a 2.3,2.29 -61.2 0 0 1.24,-0.36 Q 542.29,711.07 789,554.01 882.18,494.69 1164.82,314.7 a 0.69,0.68 -16.7 0 0 0.32,-0.58 V 171.46 a 0.39,0.39 0 0 0 -0.39,-0.39 H 939.84 a 2.3,2.29 -61.2 0 0 -1.24,0.36 q -32.99,21.03 -279.7,178.09"
         inkscape:connector-curvature="0"
         style="vector-effect:non-scaling-stroke;stroke:#c28445" />
    </g>
    <path
       id="path12"
       d="m 1284.87,0 q 23.81,1.26 46.9,6.53 21.57,4.93 40.59,15.08 29.64,15.83 47.47,43.8 9.45,14.84 16.26,33.27 2.61,7.07 3.36,10.86 c 0.77,3.85 2.58,8.32 3.33,12.74 q 4.16,24.22 5.22,48.9 v 1105.54 q -0.84,18.19 -3.3,36.15 -2.45,17.91 -6.4,30.43 -4.83,15.34 -12.1,28.66 -22.3,40.91 -65.34,59.65 -18.12,7.89 -33.58,10.97 -20.72,4.12 -46.52,5.42 H 169.02 q -27.56,-1.4 -46.84,-5.43 c -27.77,-5.81 -54.35,-18.04 -74.92,-37.65 -18.13,-17.28 -30.75,-40.44 -37.4,-64.75 Q 1.36,1309.14 0,1276.78 V 171.13 Q 0.74,158.91 2.11,146.79 5.26,118.87 14.1,94.61 32.09,45.23 76.26,21.59 C 92.74,12.77 111.52,6.94 130.5,3.81 Q 147.12,1.07 164.01,0 Z m 1.01,45.58 q -257.11,-0.03 -1108.26,-0.02 -17.51,0 -27,1.06 c -18.84,2.09 -37.2,6.62 -53.63,16.15 -23.23,13.48 -38.84,36.39 -44.96,62.77 q -4.1,17.67 -5.84,35.81 -1.11,11.53 -1.11,36.26 0.02,644.79 0,1059.39 0,20.34 1.11,30.95 c 1.99,19.04 4.99,38.47 13.08,55.97 14.72,31.83 44.43,50.45 78.4,55.39 q 20.6,3 38.84,3 649.23,0 1096.99,0 c 30.6,0 63.24,-4.28 88.28,-23.5 21.4,-16.42 33.99,-41.73 37.78,-68.25 2.54,-17.8 3.3,-36.71 3.26,-59.14 q -0.03,-19.49 -0.02,-1068.42 0,-14.4 -2.1,-37.04 -1.48,-15.88 -4.87,-26.61 c -4.07,-12.87 -9.98,-25.31 -18.88,-35.57 -18.29,-21.08 -43.18,-32.58 -70.73,-35.99 q -17.86,-2.21 -20.34,-2.21 z"
       inkscape:connector-curvature="0"
       style="fill:#d9944e" />
    <path
       id="path14"
       d="m 1285.88,45.58 q 2.48,0 20.34,2.21 c 27.55,3.41 52.44,14.91 70.73,35.99 8.9,10.26 14.81,22.7 18.88,35.57 q 3.39,10.73 4.87,26.61 2.1,22.64 2.1,37.04 -0.01,1048.93 0.02,1068.42 c 0.04,22.43 -0.72,41.34 -3.26,59.14 -3.79,26.52 -16.38,51.83 -37.78,68.25 -25.04,19.22 -57.68,23.5 -88.28,23.5 q -447.76,0 -1096.99,0 -18.24,0 -38.84,-3 c -33.97,-4.94 -63.68,-23.56 -78.4,-55.39 -8.09,-17.5 -11.09,-36.93 -13.08,-55.97 q -1.11,-10.61 -1.11,-30.95 0.02,-414.6 0,-1059.39 0,-24.73 1.11,-36.26 1.74,-18.14 5.84,-35.81 C 58.15,99.16 73.76,76.25 96.99,62.77 113.42,53.24 131.78,48.71 150.62,46.62 q 9.49,-1.06 27,-1.06 851.15,-0.01 1108.26,0.02 z m -64.18,90.17 a 0.69,0.69 0 0 0 -0.69,-0.69 H 226.95 a 0.69,0.69 0 0 0 -0.69,0.69 v 632.12 a 0.69,0.69 0 0 0 0.69,0.69 h 994.06 a 0.69,0.69 0 0 0 0.69,-0.69 z m 0,837.35 a 0.57,0.57 0 0 0 -0.57,-0.57 h -994.3 a 0.57,0.57 0 0 0 -0.57,0.57 v 338.22 a 0.57,0.57 0 0 0 0.57,0.57 h 994.3 a 0.57,0.57 0 0 0 0.57,-0.57 z"
       inkscape:connector-curvature="0"
       style="fill:#cd8c4a" />
    <path
       id="path16"
       d="m 1221.7,767.87 a 0.69,0.69 0 0 1 -0.69,0.69 H 226.95 a 0.69,0.69 0 0 1 -0.69,-0.69 V 135.75 a 0.69,0.69 0 0 1 0.69,-0.69 h 994.06 a 0.69,0.69 0 0 1 0.69,0.69 z M 658.9,349.52 q -93.18,59.33 -375.82,239.32 a 0.69,0.68 -16.7 0 0 -0.32,0.57 v 142.66 a 0.39,0.39 0 0 0 0.39,0.39 h 224.91 a 2.3,2.29 -61.2 0 0 1.24,-0.36 Q 542.29,711.07 789,554.01 882.18,494.69 1164.82,314.7 a 0.69,0.68 -16.7 0 0 0.32,-0.58 V 171.46 a 0.39,0.39 0 0 0 -0.39,-0.39 H 939.84 a 2.3,2.29 -61.2 0 0 -1.24,0.36 q -32.99,21.03 -279.7,178.09 z"
       inkscape:connector-curvature="0"
       style="fill:#aa733c" />
    <path
       id="path18"
       d="M 789,554.01 Q 542.29,711.07 509.3,732.1 a 2.3,2.29 -61.2 0 1 -1.24,0.36 H 283.15 a 0.39,0.39 0 0 1 -0.39,-0.39 V 589.41 a 0.69,0.68 -16.7 0 1 0.32,-0.57 Q 565.72,408.85 658.9,349.52 905.61,192.46 938.6,171.43 a 2.3,2.29 -61.2 0 1 1.24,-0.36 h 224.91 a 0.39,0.39 0 0 1 0.39,0.39 v 142.66 a 0.69,0.68 -16.7 0 1 -0.32,0.58 Q 882.18,494.69 789,554.01 Z"
       inkscape:connector-curvature="0"
       style="fill:#d9944e" />
    <path
       id="path20"
       d="m 1221.7,1311.32 a 0.57,0.57 0 0 1 -0.57,0.57 h -994.3 a 0.57,0.57 0 0 1 -0.57,-0.57 V 973.1 a 0.57,0.57 0 0 1 0.57,-0.57 h 994.3 a 0.57,0.57 0 0 1 0.57,0.57 z"
       inkscape:connector-curvature="0"
       style="fill:#aa733c" />
  </g>
</svg>
